<svg enable-background="new 0 0 800 800" height="800" viewBox="0 0 800 800" width="800" xmlns="http://www.w3.org/2000/svg"><path d="m150.5 56.5h160l90.5 102 89.5-90 160-12 112 120v174l-174 236-187.5 168-250.5-242-128-260 46-136z" fill="#ef0000"/><path d="m575.298 19.191c-68.102 0-131.853 30.834-174.298 82.497-42.446-51.664-106.194-82.497-174.298-82.497-124.452 0-225.702 101.248-225.702 225.702 0 97.452 58.11 210.172 172.712 335.026 88.195 96.082 184.137 170.478 211.441 190.99l15.842 11.901 15.842-11.899c27.304-20.514 123.249-94.906 211.445-190.989 114.607-124.855 172.718-237.575 172.718-335.029 0-124.454-101.25-225.702-225.702-225.702zm14.126 525.06c-72.543 79.029-150.59 142.915-188.429 172.358-37.838-29.443-115.881-93.331-188.424-172.36-103.904-113.197-158.824-216.714-158.824-299.356 0-95.367 77.588-172.955 172.955-172.955 62.758 0 120.707 34.205 151.231 89.268l23.067 41.61 23.066-41.611c30.523-55.061 88.471-89.268 151.231-89.268 95.367 0 172.955 77.586 172.955 172.955.001 82.647-54.922 186.164-158.828 299.359z"/></svg>