<?xml version="1.0" encoding="utf-8"?>
<!-- Generator: Adobe Illustrator 16.0.0, SVG Export Plug-In . SVG Version: 6.00 Build 0)  -->
<!DOCTYPE svg PUBLIC "-//W3C//DTD SVG 1.1//EN" "http://www.w3.org/Graphics/SVG/1.1/DTD/svg11.dtd">
<svg version="1.1" id="Layer_1" xmlns="http://www.w3.org/2000/svg" xmlns:xlink="http://www.w3.org/1999/xlink" x="0px" y="0px"
	 width="800px" height="800px" viewBox="0 0 800 800" enable-background="new 0 0 800 800" xml:space="preserve">
<polygon fill="#EF0000" points="150.5,56.5 310.5,56.5 401,158.5 490.5,68.5 650.5,56.5 762.5,176.5 762.5,350.5 588.5,586.5 
	401,754.5 150.5,512.5 22.5,252.5 68.5,116.5 "/>
<path d="M575.298,19.191c-68.102,0-131.853,30.834-174.298,82.497c-42.446-51.664-106.194-82.497-174.298-82.497
	C102.25,19.191,1,120.439,1,244.893c0,97.452,58.11,210.172,172.712,335.026c88.195,96.082,184.137,170.478,211.441,190.99
	l15.842,11.901l15.842-11.899c27.304-20.514,123.249-94.906,211.445-190.989C742.889,455.067,801,342.347,801,244.893
	C801,120.439,699.75,19.191,575.298,19.191z M589.424,544.251c-72.543,79.029-150.59,142.915-188.429,172.358
	c-37.838-29.443-115.881-93.331-188.424-172.36C108.667,431.052,53.747,327.535,53.747,244.893
	c0-95.367,77.588-172.955,172.955-172.955c62.758,0,120.707,34.205,151.231,89.268L401,202.816l23.066-41.611
	c30.523-55.061,88.471-89.268,151.231-89.268c95.367,0,172.955,77.586,172.955,172.955
	C748.253,327.539,693.33,431.056,589.424,544.251z"/>
<path fill="#EF0000" d="M1096.5,332.5"/>
</svg>
