<svg enable-background="new 0 0 2000 2000" viewBox="0 0 2000 2000" xmlns="http://www.w3.org/2000/svg"><path d="m1005.9 1375.9c-4.2 0-28.1 15.9-151.4 100.9-25.1 17.3-71.8 49.2-103.7 70.8-31.9 21.7-74.7 50.7-95 64.5s-37.6 24.6-38.3 23.8c-.7-.7 5.2-25.5 13.1-55 27.3-101.6 105.7-406.6 105.7-410.9 0-2.4-40.5-38.7-90-80.7s-122.8-104.4-162.9-138.6-81-68.9-90.9-77.1l-17.9-14.8 109.3-5c217.2-9.9 354.1-17.8 357-20.6 1.6-1.5 14.3-34.5 28.4-73.3 49.1-136 137.3-376.8 138.5-378.4.8-1 2.3 994.4-1.9 994.4z" fill="#fce408"/><path d="m1339.4 1606.7c-26.7-18.6-74.2-51.6-105.7-73.2s-73.1-50.4-92.6-63.8c-108.8-75.1-137-93.8-141.2-93.8s-28.1 15.9-151.4 100.9c-25.1 17.3-71.8 49.2-103.7 70.8-31.9 21.7-74.7 50.7-95 64.5s-37.6 24.6-38.3 23.8c-.7-.7 5.2-25.5 13.1-55 27.3-101.6 105.7-406.6 105.7-410.9 0-2.4-40.5-38.7-90-80.7s-122.8-104.4-162.9-138.6-81-68.9-90.9-77.1l-17.9-14.8 109.3-5c217.2-9.9 354.1-17.8 357-20.6 1.6-1.5 14.3-34.5 28.4-73.3 49.1-136 137.3-376.8 138.5-378.4.8-1 164.5 452.6 165.7 453.8 1.1 1.1 153.1 9.8 311.7 17.8 45.6 2.3 98.7 5.4 118 6.8l35 2.6-10.1 8.1c-11.9 9.6-153.8 129-255 214.7-39.1 33.1-77.2 65.2-84.7 71.3l-13.7 11.2 14.8 57.3c8.1 31.5 29 112.7 46.3 180.6s37.9 148 45.7 178.2 13.8 55.2 13.4 55.7c-.7.6-22.9-14.3-49.5-32.9z" fill="none" stroke="#000" stroke-miterlimit="10" stroke-width="50"/></svg>